<svg xmlns="http://www.w3.org/2000/svg" viewBox="0 0 60 75" x="0px" y="0px"><path d="M5,7a7.009,7.009,0,0,0,7,7h7V26H18a5.006,5.006,0,0,0-5,5v8.546a9.989,9.989,0,0,0,2.567,6.69L19.946,51.1A7.987,7.987,0,0,1,22,56.454V57a3,3,0,0,0,3,3H40a3,3,0,0,0,3-3V52.64a24.971,24.971,0,0,1,.962-6.866A27.034,27.034,0,0,0,45,38.36V26.17a4.09,4.09,0,0,0-3.787-4.165,4.036,4.036,0,0,0-2.469.69A3.964,3.964,0,0,0,32.4,20.963,3.945,3.945,0,0,0,27,19.534V14H48a7.094,7.094,0,0,0,7-7,7.009,7.009,0,0,0-7-7H12A7.094,7.094,0,0,0,5,7ZM27.623,21.55A1.931,1.931,0,0,1,29.108,21,2.119,2.119,0,0,1,31,23.17V24a1,1,0,0,0,2,0,2,2,0,0,1,2.108-2A2.119,2.119,0,0,1,37,24.17V26a1,1,0,0,0,2,0,1.985,1.985,0,0,1,.623-1.45A1.93,1.93,0,0,1,41.108,24,2.119,2.119,0,0,1,43,26.17V38.36a24.971,24.971,0,0,1-.962,6.866A27.034,27.034,0,0,0,41,52.64V57a1,1,0,0,1-1,1H25a1,1,0,0,1-1-1v-.546a9.989,9.989,0,0,0-2.567-6.69L17.054,44.9A7.987,7.987,0,0,1,15,39.546V31a3,3,0,0,1,3-3h1v9a1,1,0,0,0,2,0V8a1.985,1.985,0,0,1,.623-1.45A1.96,1.96,0,0,1,23.108,6,2.119,2.119,0,0,1,25,8.17V23a1,1,0,0,0,2,0A1.985,1.985,0,0,1,27.623,21.55ZM12,2H48a5.006,5.006,0,0,1,5,5,5.067,5.067,0,0,1-5,5H27V8.17a4.09,4.09,0,0,0-3.787-4.165A4,4,0,0,0,19,8v4H12A5.006,5.006,0,0,1,7,7,5.067,5.067,0,0,1,12,2Z"/><text x="0" y="75" fill="#000000" font-size="5px" font-weight="bold" font-family="'Helvetica Neue', Helvetica, Arial-Unicode, Arial, Sans-serif">Created by Juicy Fish</text><text x="0" y="80" fill="#000000" font-size="5px" font-weight="bold" font-family="'Helvetica Neue', Helvetica, Arial-Unicode, Arial, Sans-serif">from the Noun Project</text></svg>